<?xml version="1.0" ?><svg id="Layer_3" style="enable-background:new 0 0 32 32;" version="1.1" viewBox="0 0 32 32" xml:space="preserve" xmlns="http://www.w3.org/2000/svg" xmlns:xlink="http://www.w3.org/1999/xlink"><g><path fill="red" d="M10.59277,27.70215c-0.55273,0-1,0.44775-1,1s0.44727,1,1,1h4.82031V30c0,0.55225,0.44727,1,1,1s1-0.44775,1-1V12.89838   c2.83014-0.47827,4.99414-2.93994,4.99414-5.90424C22.40723,3.68896,19.71875,1,16.41309,1s-5.99512,2.68896-5.99512,5.99414   c0,2.96429,2.16479,5.42596,4.99512,5.90424v10.08795h-4.82031c-0.55273,0-1,0.44775-1,1s0.44727,1,1,1h4.82031v2.71582H10.59277z    M12.41797,6.99414C12.41797,4.79199,14.20996,3,16.41309,3c2.20215,0,3.99414,1.79199,3.99414,3.99414   c0,2.20264-1.79199,3.99463-3.99414,3.99463C14.20996,10.98877,12.41797,9.19678,12.41797,6.99414z"/></g></svg>